<svg xmlns="http://www.w3.org/2000/svg" viewBox="0 0 100 100" width="100" height="100">
  <defs>
    <linearGradient id="grad" x1="0%" y1="0%" x2="100%" y2="100%">
      <stop offset="0%" style="stop-color:#3b82f6;stop-opacity:1" />
      <stop offset="100%" style="stop-color:#1d4ed8;stop-opacity:1" />
    </linearGradient>
  </defs>
  <rect width="100" height="100" rx="22" fill="url(#grad)"/>
  <!-- Left wings -->
  <path d="M30 35 Q18 38 10 44" stroke="white" stroke-width="3" stroke-linecap="round" fill="none" opacity="0.7"/>
  <path d="M32 50 Q17 50 6 52" stroke="white" stroke-width="3" stroke-linecap="round" fill="none" opacity="0.85"/>
  <path d="M30 65 Q18 62 10 58" stroke="white" stroke-width="3" stroke-linecap="round" fill="none" opacity="0.7"/>
  <!-- Right wings -->
  <path d="M70 35 Q82 38 90 44" stroke="white" stroke-width="3" stroke-linecap="round" fill="none" opacity="0.7"/>
  <path d="M68 50 Q83 50 94 52" stroke="white" stroke-width="3" stroke-linecap="round" fill="none" opacity="0.85"/>
  <path d="M70 65 Q82 62 90 58" stroke="white" stroke-width="3" stroke-linecap="round" fill="none" opacity="0.7"/>
  <!-- Shield outline -->
  <path d="M50 18 L72 26 L72 52 Q72 68 50 82 Q28 68 28 52 L28 26 Z" stroke="white" stroke-width="3" stroke-linejoin="round" fill="none"/>
  <!-- Check + S inside shield -->
  <path d="M38 48 Q34 42 40 38 Q48 34 52 42 Q54 50 48 54 Q42 58 44 64 Q48 68 56 64" stroke="white" stroke-width="3.5" stroke-linecap="round" stroke-linejoin="round" fill="none"/>
</svg>
